<?xml version="1.0" standalone="no"?>
<!DOCTYPE svg PUBLIC "-//W3C//DTD SVG 20010904//EN"
 "http://www.w3.org/TR/2001/REC-SVG-20010904/DTD/svg10.dtd">
<svg version="1.0" xmlns="http://www.w3.org/2000/svg"
 width="500.000000pt" height="500.000000pt" viewBox="0 0 500.000000 500.000000"
 preserveAspectRatio="xMidYMid meet">

<g transform="translate(0.000000,500.000000) scale(0.100000,-0.100000)"
fill="#000000" stroke="none">
<path d="M2975 3275 c-27 -14 -70 -42 -94 -63 l-43 -37 7 -57 7 -57 82 85 c63
64 89 84 110 84 14 0 29 -6 32 -13 7 -20 -50 -169 -103 -267 -25 -47 -77 -132
-116 -189 -69 -101 -71 -107 -93 -220 -34 -174 -36 -170 39 -111 70 58 147 98
200 107 31 5 40 1 67 -26 29 -28 31 -35 28 -88 l-3 -58 -190 -72 c-104 -40
-193 -73 -196 -75 -4 -2 -10 -22 -14 -45 l-7 -42 114 46 c184 73 226 88 234
80 11 -10 -41 -79 -115 -153 -69 -69 -183 -152 -243 -177 -36 -15 -41 -23 -53
-84 l-6 -32 57 20 c119 42 241 115 363 218 64 54 131 141 176 232 38 74 53 87
160 129 129 51 157 68 153 93 -5 33 -28 31 -129 -11 -141 -60 -135 -59 -158
-15 -27 54 -57 82 -110 106 -49 21 -140 25 -198 8 -18 -5 -34 -6 -37 -3 -2 4
32 56 75 115 157 219 229 365 229 471 0 53 -3 61 -34 92 -30 30 -40 34 -87 34
-37 0 -70 -8 -104 -25z"/>
<path d="M2474 3241 c-17 -10 -36 -32 -42 -47 -7 -16 -35 -164 -63 -329 -72
-430 -71 -427 -79 -418 -4 4 -35 73 -70 153 -68 158 -103 237 -127 287 -45 96
-206 96 -271 0 -42 -63 -262 -1001 -262 -1119 0 -122 146 -210 247 -148 47 28
62 57 83 166 10 55 36 176 56 269 20 94 39 182 41 198 3 15 8 27 12 27 4 0 56
-114 116 -252 l110 -253 48 -24 c54 -27 110 -24 164 9 44 26 65 61 80 134 102
484 213 1102 213 1189 0 100 -80 177 -182 177 -24 0 -56 -8 -74 -19z"/>
<path d="M1476 1326 c-16 -37 -26 -70 -22 -73 4 -4 9 3 13 15 4 17 13 22 39
22 23 0 34 -5 34 -14 0 -8 5 -18 11 -22 13 -8 6 17 -25 88 l-22 50 -28 -66z
m54 -18 c0 -5 -11 -8 -25 -8 -29 0 -29 0 -13 35 l12 26 13 -23 c7 -13 12 -26
13 -30z"/>
<path d="M1640 1320 l0 -70 28 0 c16 0 37 6 47 14 16 12 18 18 7 40 -6 14 -9
33 -6 41 9 23 -15 45 -47 45 l-29 0 0 -70z m58 32 c3 -18 -1 -22 -22 -22 -19
0 -26 5 -26 18 0 39 43 43 48 4z m7 -62 c0 -20 -6 -26 -27 -28 -25 -3 -28 0
-28 28 0 28 3 31 28 28 21 -2 27 -8 27 -28z"/>
<path d="M1810 1320 l0 -70 38 2 c36 1 36 1 5 5 -27 4 -33 9 -33 28 0 19 6 24
33 28 l32 4 -32 1 c-29 2 -33 5 -33 31 0 26 4 30 33 34 31 4 31 4 -5 5 l-38 2
0 -70z"/>
<path d="M1980 1320 l0 -70 38 2 c36 1 36 1 5 5 -27 4 -33 9 -33 28 0 19 6 24
33 28 l32 4 -32 1 c-29 2 -33 5 -33 31 0 26 4 30 33 34 31 4 31 4 -5 5 l-38 2
0 -70z"/>
<path d="M2152 1318 c0 -40 3 -58 5 -40 5 40 12 40 38 2 11 -16 24 -30 29 -30
4 0 1 12 -9 26 -15 23 -15 27 -1 43 31 34 13 71 -36 71 l-28 0 2 -72z m57 48
c17 -20 3 -46 -25 -46 -20 0 -24 5 -24 30 0 23 5 30 19 30 10 0 24 -6 30 -14z"/>
<path d="M2611 1363 c1 -23 2 -24 6 -6 2 13 13 24 26 26 18 4 17 5 -5 6 -24 1
-28 -3 -27 -26z"/>
<path d="M2962 1318 c0 -40 3 -58 5 -40 5 40 12 40 38 2 11 -16 24 -30 29 -30
4 0 1 12 -9 26 -15 23 -15 27 -1 43 31 34 13 71 -36 71 l-28 0 2 -72z m57 48
c17 -20 3 -46 -25 -46 -20 0 -24 5 -24 30 0 23 5 30 19 30 10 0 24 -6 30 -14z"/>
<path d="M3120 1320 l0 -70 43 2 c35 1 37 2 10 5 -53 7 -52 48 2 56 l30 4 -32
2 c-29 1 -33 4 -33 30 0 26 4 30 33 34 28 3 26 4 -10 5 l-43 2 0 -70z"/>
<path d="M3290 1320 l0 -70 43 1 42 2 -35 6 c-26 4 -36 12 -38 28 -3 19 2 22
35 26 l38 4 -38 1 c-36 2 -38 4 -35 30 2 22 9 28 38 33 l35 6 -42 2 -43 1 0
-70z"/>
<path d="M3462 1318 c0 -40 3 -58 5 -40 5 40 16 40 43 1 12 -16 25 -28 28 -25
3 3 -3 15 -12 25 -17 18 -17 20 3 40 33 33 11 71 -41 71 l-28 0 2 -72z m63 32
c0 -20 -6 -26 -27 -28 -24 -3 -28 0 -28 21 0 30 9 39 35 35 14 -2 20 -10 20
-28z"/>
<path d="M3646 1326 c-16 -37 -26 -69 -23 -72 3 -3 8 4 12 15 5 16 15 21 41
21 23 0 34 -5 34 -14 0 -8 5 -18 11 -22 13 -8 6 17 -25 88 l-22 50 -28 -66z
m54 -18 c0 -5 -11 -8 -25 -8 -29 0 -29 0 -13 35 l12 26 13 -23 c7 -13 12 -26
13 -30z"/>
<path d="M1282 1313 c2 -64 2 -65 5 -15 3 33 8 50 15 46 6 -4 6 1 -1 15 -7 11
-14 21 -16 21 -3 0 -4 -30 -3 -67z"/>
<path d="M1362 1336 c-2 -44 -4 -47 -19 -35 -13 11 -13 8 3 -16 l19 -29 3 32
c2 17 1 47 -1 65 -3 24 -4 20 -5 -17z"/>
<path d="M2342 1353 c-6 -16 -17 -45 -26 -65 -9 -21 -12 -38 -7 -38 5 0 11 9
14 20 7 29 63 28 72 -1 4 -11 9 -18 12 -16 7 7 -38 127 -47 127 -5 0 -13 -12
-18 -27z m28 -12 c0 -5 3 -16 6 -25 4 -12 0 -16 -15 -16 -22 0 -25 8 -15 34 7
17 24 22 24 7z"/>
<path d="M2802 1353 c-6 -16 -17 -45 -26 -65 -9 -21 -12 -38 -7 -38 5 0 11 9
14 20 4 15 14 20 37 20 23 0 33 -5 37 -20 3 -11 9 -20 13 -20 5 0 -3 29 -18
65 -14 36 -29 65 -33 65 -4 0 -12 -12 -17 -27z m33 -30 c5 -19 2 -23 -14 -23
-23 0 -24 3 -15 38 7 26 18 20 29 -15z"/>
<path d="M2671 1354 c0 -11 3 -14 6 -6 3 7 2 16 -1 19 -3 4 -6 -2 -5 -13z"/>
<path d="M2611 1303 c2 -25 2 -25 6 -5 6 33 54 27 64 -8 6 -21 7 -22 8 -4 1
28 -18 44 -51 44 -24 0 -28 -4 -27 -27z"/>
<path d="M2610 1259 c0 -5 9 -9 20 -9 11 0 20 2 20 4 0 2 -9 6 -20 9 -11 3
-20 1 -20 -4z"/>
</g>
</svg>
