<?xml version="1.0" standalone="no"?>
<!DOCTYPE svg PUBLIC "-//W3C//DTD SVG 20010904//EN"
 "http://www.w3.org/TR/2001/REC-SVG-20010904/DTD/svg10.dtd">
<svg version="1.0" xmlns="http://www.w3.org/2000/svg"
 width="1120.000000pt" height="1120.000000pt" viewBox="0 0 1120.000000 1120.000000"
 preserveAspectRatio="xMidYMid meet">

<g transform="translate(0.000000,1120.000000) scale(0.100000,-0.100000)"
fill="#000000" stroke="none">
<path d="M8076 9125 c23 -68 33 -88 33 -70 0 11 -9 36 -20 55 -11 19 -17 26
-13 15z"/>
<path d="M4980 9079 c-379 -33 -736 -161 -1075 -383 -234 -154 -471 -379 -562
-533 l-25 -43 48 -87 c61 -113 124 -213 133 -213 4 0 39 44 76 98 199 282 383
464 648 636 447 292 1075 398 1583 267 362 -93 701 -276 948 -511 180 -172
303 -337 465 -623 68 -120 91 -152 91 -127 0 6 4 9 10 5 5 -3 -25 -38 -66 -77
-169 -162 -273 -394 -304 -682 -6 -60 -10 -140 -8 -177 2 -63 -1 -74 -42 -155
-49 -96 -129 -191 -199 -236 -34 -21 -57 -28 -95 -28 -44 0 -53 4 -87 40 -46
48 -68 113 -76 227 -5 66 -3 83 8 86 99 28 133 42 188 74 308 182 442 635 226
761 -58 33 -158 28 -240 -13 -144 -73 -298 -273 -363 -475 -35 -107 -52 -235
-53 -385 0 -215 29 -312 122 -405 156 -156 420 -76 620 188 l48 63 20 -38 c10
-21 34 -52 53 -70 37 -36 144 -87 164 -79 7 3 15 2 18 -2 3 -5 22 -6 43 -4 31
4 34 6 18 13 -18 7 -18 8 4 8 49 2 155 65 227 136 39 39 78 81 88 95 l17 25
-6 -42 -5 -43 47 7 c27 3 68 11 93 17 50 13 48 6 90 236 99 540 133 655 248
828 42 64 109 114 122 91 5 -7 5 -18 1 -22 -18 -18 1 -46 33 -51 38 -6 105 -3
103 5 -1 3 16 21 37 39 49 44 75 101 76 166 0 61 -27 97 -84 112 -75 21 -152
-23 -266 -152 -36 -41 -66 -73 -67 -72 -1 1 8 38 20 83 12 45 19 85 16 88 -4
3 -67 -9 -140 -28 l-134 -33 -8 -40 c-4 -21 -34 -196 -68 -389 -90 -527 -95
-549 -142 -640 -55 -106 -163 -218 -226 -235 -57 -15 -87 -7 -132 38 -44 45
-67 112 -75 227 l-7 81 64 18 c102 28 185 80 279 175 140 141 196 272 189 442
-5 105 -34 169 -97 213 -49 35 -123 48 -162 29 -52 -24 -63 -21 -76 22 -21 73
-109 209 -127 198 -6 -3 -7 -1 -3 6 10 15 -53 113 -67 104 -6 -3 -7 -1 -3 5 7
12 -17 66 -35 78 -7 4 -7 -2 1 -17 21 -41 -4 -8 -81 105 -190 280 -550 583
-894 752 -215 106 -447 179 -657 209 -138 19 -394 26 -528 14z m2315 -1339
c24 -47 67 -171 61 -177 -6 -6 -9 1 -54 125 -31 85 -33 103 -7 52z m203 -312
c36 -44 13 -211 -44 -328 -45 -90 -122 -171 -196 -205 -29 -13 -54 -23 -55
-21 -9 9 22 152 53 245 64 192 148 321 208 321 13 0 28 -6 34 -12z m-740 -170
c17 -17 15 -120 -3 -197 -33 -139 -118 -263 -219 -322 -74 -42 -80 -40 -71 28
32 259 217 567 293 491z"/>
<path d="M6464 8998 l-29 -33 33 29 c30 28 37 36 29 36 -2 0 -16 -15 -33 -32z"/>
<path d="M5801 8665 c-12 -58 -32 -142 -46 -187 -29 -102 -25 -115 6 -19 13
39 26 71 30 71 4 0 11 15 14 33 4 17 26 51 49 75 41 43 42 44 96 38 61 -6 212
-53 309 -97 35 -16 69 -29 76 -29 6 0 38 -17 71 -38 76 -49 162 -97 149 -85
-5 6 -52 39 -104 73 -178 118 -413 222 -602 264 -25 5 -26 4 -48 -99z"/>
<path d="M7515 8609 c-9 -17 -14 -33 -11 -36 3 -3 10 7 16 22 6 15 13 32 16
36 3 5 3 9 0 9 -3 0 -13 -14 -21 -31z"/>
<path d="M6784 8505 c22 -8 96 -27 165 -41 136 -28 179 -51 161 -85 -6 -10
-10 -24 -9 -31 0 -7 4 -3 9 10 5 12 15 22 22 22 7 0 35 11 63 24 l49 24 -49 6
c-95 12 -190 29 -290 51 -158 36 -166 38 -121 20z"/>
<path d="M7525 8448 c-112 -13 -122 -16 -129 -35 -10 -26 10 -39 32 -20 13 12
38 17 83 18 73 1 186 25 134 29 -26 1 -27 3 -10 10 18 8 18 9 -5 8 -14 -1 -61
-5 -105 -10z"/>
<path d="M2476 8435 c-374 -78 -732 -351 -990 -755 -117 -183 -223 -453 -262
-665 -15 -77 -19 -147 -19 -300 1 -183 3 -210 29 -319 77 -329 228 -593 473
-827 44 -42 113 -101 154 -131 80 -60 245 -158 266 -158 10 0 13 -45 13 -209
l0 -209 -147 -78 c-187 -100 -296 -177 -408 -289 -223 -224 -384 -573 -386
-837 -1 -43 -5 -78 -10 -78 -15 0 -10 -159 7 -261 45 -265 174 -506 389 -728
60 -62 148 -142 195 -178 128 -97 377 -210 403 -184 5 5 17 7 26 5 9 -2 -2 5
-24 16 -41 21 -38 20 56 -4 191 -49 471 -65 654 -37 226 35 482 135 675 264
447 298 689 742 771 1420 6 54 15 97 20 95 4 -2 42 -43 84 -93 238 -282 542
-542 924 -794 85 -55 152 -101 149 -101 -3 0 -48 24 -99 53 -52 29 -102 56
-111 60 -26 10 -159 100 -273 185 -206 155 -490 418 -609 565 -21 26 -41 46
-43 43 -8 -8 -15 -136 -8 -153 7 -17 8 -17 14 -1 5 16 11 14 53 -15 25 -17 54
-44 64 -59 10 -15 22 -24 26 -22 4 3 10 -7 14 -21 3 -13 10 -22 15 -19 5 3 9
-3 9 -14 0 -10 18 -34 40 -53 22 -19 40 -39 40 -45 0 -7 7 -15 16 -18 10 -4
13 -2 9 7 -4 6 0 4 8 -5 8 -10 17 -15 20 -11 4 3 7 -1 7 -10 0 -10 4 -17 9
-17 5 0 16 -6 23 -13 7 -7 42 -30 78 -52 58 -34 104 -68 150 -109 8 -7 26 -19
39 -26 52 -27 180 -128 173 -136 -3 -5 0 -3 8 3 8 7 22 13 31 13 19 0 45 -26
31 -32 -14 -5 -288 -332 -416 -495 l-48 -62 20 -34 c12 -18 49 -60 84 -93 73
-70 167 -120 304 -158 105 -31 332 -66 421 -66 l61 0 -19 40 c-87 180 -169
506 -169 673 0 45 1 47 20 37 11 -6 20 -17 20 -25 0 -8 6 -12 14 -9 8 3 66
-22 128 -55 198 -105 538 -244 555 -227 3 3 -8 8 -23 12 -16 4 -41 16 -56 26
-16 11 -28 17 -28 14 0 -3 -13 0 -30 5 -16 6 -28 14 -25 19 4 7 -82 50 -100
50 -3 0 -32 12 -63 26 -168 75 -211 98 -205 107 4 6 0 8 -9 5 -8 -4 -21 -2
-29 4 -11 8 -10 9 4 4 29 -9 19 0 -43 38 -79 49 -77 56 3 10 90 -52 315 -159
442 -212 305 -125 535 -181 827 -202 379 -27 738 45 1082 217 154 77 368 222
430 292 l19 21 -85 0 c-106 0 -179 10 -172 22 4 6 -2 7 -15 3 -28 -9 -123 14
-115 27 4 6 -2 8 -16 3 -13 -4 -20 -3 -17 2 7 11 -138 77 -151 69 -5 -3 -37 8
-71 24 -34 16 -64 29 -67 29 -19 0 -192 167 -248 241 -96 124 -136 220 -166
398 -33 189 -22 371 34 562 13 47 23 86 21 88 -6 7 -45 -128 -65 -228 -36
-177 -22 -405 34 -572 l23 -69 -159 -152 c-88 -84 -166 -155 -173 -160 -11 -6
-157 -167 -264 -291 -31 -36 -32 -40 -15 -49 10 -6 88 -13 174 -15 265 -7 479
43 656 154 47 30 87 54 88 54 2 0 3 -7 3 -16 0 -23 -107 -100 -194 -140 -39
-19 -118 -46 -175 -60 -89 -22 -129 -26 -293 -29 -104 -2 -170 0 -145 4 l45 7
-57 4 c-31 3 -54 1 -51 -4 9 -14 -102 3 -242 39 -126 31 -374 118 -445 156
-33 17 -33 18 -10 19 20 0 13 6 -28 25 -62 29 -74 31 -46 10 23 -17 15 -19
-21 -5 -19 7 -25 15 -21 27 5 12 3 13 -6 6 -17 -14 -82 13 -72 29 5 8 2 9 -10
5 -11 -5 -15 -3 -10 4 4 7 1 10 -7 7 -13 -5 -89 27 -89 37 0 3 14 -2 31 -10
17 -9 33 -14 36 -11 3 3 19 -2 35 -10 37 -19 58 -12 58 19 0 57 50 257 65 257
2 0 80 -40 173 -89 165 -86 351 -174 522 -245 71 -29 80 -35 53 -35 -18 -1
-33 -4 -33 -8 -1 -5 -2 -34 -3 -66 -2 -55 -1 -57 13 -35 8 12 28 37 43 55 17
19 25 37 21 44 -5 8 -2 10 9 6 11 -4 36 17 84 71 37 42 78 87 91 100 17 16 19
23 10 27 -106 37 -113 41 -115 65 -9 128 156 743 281 1049 14 36 26 70 26 78
0 7 4 13 9 13 5 0 14 13 21 30 7 16 36 62 66 101 50 68 65 99 46 99 -4 0 -14
-6 -21 -12 -11 -10 -13 -10 -7 0 4 6 3 12 -2 12 -6 0 -13 -7 -16 -16 -3 -8
-10 -13 -15 -10 -5 3 -29 -3 -52 -14 -24 -11 -53 -19 -64 -19 -11 0 -2 6 21
13 59 19 125 67 175 128 62 76 61 76 54 47 -6 -26 -6 -26 47 -21 72 7 97 17
102 44 3 13 19 113 36 223 61 391 72 451 98 529 39 119 121 236 157 223 24
-10 18 -34 -19 -74 -18 -21 -39 -49 -46 -63 l-12 -25 26 27 c14 15 26 31 26
36 0 21 27 29 77 23 56 -8 95 5 99 33 2 13 -4 13 -39 -5 l-42 -21 38 32 c64
55 98 143 77 205 -14 41 -35 55 -85 55 -54 0 -86 -22 -161 -107 -44 -51 -65
-69 -60 -53 9 31 20 110 15 110 -2 -1 -49 -13 -104 -28 l-100 -27 -22 -150
c-12 -83 -38 -262 -57 -399 -20 -137 -43 -276 -52 -310 -42 -162 -140 -276
-238 -276 -29 0 -44 7 -67 31 -37 39 -49 83 -56 195 l-6 92 49 16 c140 46 287
200 346 362 33 89 32 222 -2 289 -36 72 -79 98 -155 93 -106 -7 -199 -71 -287
-201 -96 -141 -158 -380 -158 -611 0 -77 -1 -80 -37 -124 -125 -149 -221 -276
-216 -284 6 -11 1 -17 97 99 42 51 85 97 96 103 l21 11 -19 -38 c-56 -109
-163 -213 -219 -213 -79 0 -131 85 -140 229 -5 83 -4 91 13 97 63 20 167 80
216 124 67 60 147 175 178 257 27 71 38 218 20 282 -6 25 -28 61 -49 84 -35
37 -43 41 -100 45 -54 4 -70 1 -125 -27 -114 -56 -224 -193 -292 -365 -56
-142 -69 -225 -69 -451 0 -184 2 -205 23 -256 55 -137 118 -189 230 -189 117
0 265 101 366 252 46 68 47 54 1 -18 -19 -30 -35 -57 -36 -62 -3 -13 -79 -95
-111 -118 -17 -13 -35 -21 -39 -18 -5 3 -9 0 -9 -6 0 -6 -4 -9 -9 -5 -5 3 -17
-2 -25 -11 -9 -8 -16 -12 -16 -9 0 4 -15 -2 -34 -13 -45 -27 -145 -35 -130
-10 4 7 3 8 -5 4 -15 -10 -53 3 -46 15 4 5 -2 9 -11 9 -10 0 -30 12 -46 27
l-28 26 -40 -86 c-32 -71 -211 -514 -233 -579 -4 -10 -10 -18 -14 -18 -12 0
-118 94 -289 255 l-151 143 64 17 c35 10 65 21 68 25 2 4 25 130 50 281 74
442 100 540 174 668 47 79 104 145 122 139 7 -2 17 -13 23 -24 17 -30 28 -35
64 -30 75 11 134 93 135 188 1 45 -3 54 -33 80 -28 26 -39 30 -76 25 -55 -6
-97 -37 -177 -132 -34 -40 -63 -72 -65 -71 -1 2 5 25 13 52 13 43 20 95 13 94
-47 -6 -224 -61 -229 -71 -7 -14 -50 -253 -134 -754 -44 -258 -79 -413 -112
-497 l-16 -39 34 -37 c19 -20 24 -28 12 -18 -18 15 -23 16 -23 5 -1 -10 -5 -9
-15 5 -14 19 -35 14 -35 -8 0 -7 -13 -25 -30 -41 -16 -16 -30 -25 -30 -19 1
12 23 41 33 42 14 1 22 12 9 12 -6 0 -9 8 -5 18 3 9 -19 -19 -48 -63 -30 -44
-53 -83 -51 -87 1 -5 -1 -7 -6 -6 -4 1 -27 -17 -52 -41 -50 -48 -156 -121
-176 -121 -7 0 -14 -6 -17 -12 -3 -10 -9 -9 -22 4 -19 17 -13 38 11 38 46 0
161 86 221 165 135 179 211 457 174 636 -14 67 -59 142 -101 167 l-30 19 31
29 c17 16 50 56 74 89 141 199 181 429 97 565 -32 51 -102 108 -143 117 -16 3
-29 8 -29 11 0 3 16 25 36 49 l36 44 38 -35 c70 -63 191 -58 304 15 68 42 170
142 217 211 98 143 188 370 225 563 46 249 -2 491 -115 570 -36 26 -52 30
-105 30 -98 0 -177 -46 -269 -155 -20 -25 -35 -38 -33 -30 3 8 18 76 35 150
16 74 58 257 91 405 87 382 109 488 104 496 -2 4 -41 -2 -86 -12 -46 -11 -98
-22 -116 -26 -18 -3 -35 -10 -38 -14 -3 -5 -14 -9 -25 -9 -23 0 -25 -15 -3
-24 29 -11 17 -82 -137 -801 -195 -909 -216 -986 -303 -1169 -51 -105 -116
-186 -151 -186 -38 0 -58 57 -50 143 19 206 130 746 199 970 8 26 11 47 7 47
-30 0 -205 -51 -212 -62 -5 -7 -9 -30 -9 -52 l0 -38 -39 35 c-49 44 -100 61
-166 54 -280 -29 -525 -457 -550 -962 -11 -212 33 -366 123 -430 38 -26 52
-30 105 -30 110 1 212 69 294 195 l37 58 21 -36 c14 -25 31 -40 53 -47 17 -5
32 -12 31 -15 0 -3 -31 -31 -69 -63 -128 -106 -191 -227 -207 -390 l-6 -70 29
8 c16 5 52 13 81 19 29 7 63 22 78 36 36 33 112 157 141 228 13 31 31 64 41
72 23 20 83 96 83 106 0 4 -10 -2 -23 -14 -13 -12 -27 -19 -32 -15 -4 5 -5 3
-2 -3 4 -7 -10 -23 -32 -38 -27 -19 -37 -33 -34 -45 4 -15 -1 -17 -26 -13 -17
2 -31 8 -31 14 0 31 152 133 221 147 113 25 184 8 216 -52 26 -47 25 -250 -1
-327 -53 -155 -120 -232 -232 -264 -21 -6 -21 -5 12 191 19 108 48 249 64 312
19 72 27 118 21 124 -6 6 -25 6 -52 -1 -24 -6 -47 -8 -52 -5 -6 3 -7 1 -4 -4
4 -6 -3 -19 -14 -29 -28 -25 -80 -129 -119 -239 -28 -80 -186 -834 -206 -984
-3 -28 -10 -49 -14 -46 -4 2 -40 60 -80 127 -40 68 -103 170 -140 228 -99 155
-208 359 -298 559 -108 238 -130 302 -114 333 6 13 18 127 27 263 25 384 72
786 121 1018 135 648 286 963 513 1075 69 33 181 38 225 8 46 -30 70 -97 63
-181 -8 -113 -66 -210 -166 -279 -36 -25 -39 -30 -25 -41 39 -28 195 35 254
102 112 127 118 302 14 413 -67 72 -125 93 -239 88 -83 -3 -100 -8 -180 -46
-218 -105 -374 -271 -495 -524 -105 -223 -189 -601 -235 -1061 -4 -38 -9 -67
-11 -64 -2 2 -20 98 -39 213 -20 115 -40 218 -45 229 -10 22 -9 76 1 69 8 -5
24 35 39 96 44 176 156 492 199 560 28 44 142 189 154 197 7 4 5 -2 -3 -12 -8
-11 28 24 80 76 163 165 327 258 526 299 32 7 69 21 84 31 14 11 44 22 65 26
22 3 43 11 47 17 5 6 8 7 8 1 0 -6 26 -9 65 -7 36 2 65 7 65 10 0 4 33 8 73 9
39 2 108 7 152 12 72 8 68 8 -50 5 -71 -2 -154 -4 -183 -4 -29 0 -51 -3 -49
-7 3 -5 -32 -9 -77 -9 -202 -3 -480 -106 -666 -245 -92 -70 -222 -203 -279
-288 -93 -137 -171 -326 -232 -564 -44 -172 -52 -247 -51 -482 1 -229 -6 -232
-33 -15 -22 177 -40 271 -90 465 -58 224 -111 396 -180 580 -190 506 -367 727
-640 801 -84 22 -300 27 -389 9z m236 -386 c48 -16 148 -61 167 -75 2 -2 -17
-27 -41 -56 -125 -149 -245 -337 -331 -518 -104 -220 -207 -589 -271 -970 -51
-306 -86 -648 -86 -838 0 -92 0 -93 -22 -87 -74 22 -275 170 -366 269 -186
204 -304 454 -341 720 -49 350 67 778 291 1081 179 241 488 452 726 495 69 13
205 3 274 -21z m432 -466 c79 -159 101 -220 165 -459 52 -195 83 -340 127
-599 14 -82 45 -256 69 -385 47 -248 75 -458 74 -550 0 -51 -4 -42 -55 135
-122 425 -144 534 -184 932 -22 222 -37 310 -51 296 -16 -16 -31 -273 -25
-403 11 -202 25 -294 76 -495 78 -303 140 -470 408 -1105 136 -323 147 -363
112 -395 -37 -33 -42 -84 -25 -218 30 -230 35 -282 35 -401 0 -107 -17 -302
-26 -293 -2 2 -5 102 -7 223 -3 121 -12 275 -21 344 -9 69 -21 162 -27 208 -6
45 -14 82 -18 82 -36 0 -395 -285 -556 -442 -126 -122 -164 -171 -144 -184 7
-4 64 -34 128 -67 64 -33 192 -104 284 -159 201 -118 304 -171 317 -163 13 8
13 7 -11 -71 -100 -323 -413 -628 -752 -733 -354 -109 -756 -34 -1037 194
-279 225 -411 489 -397 794 12 274 125 446 370 566 62 30 135 60 162 67 28 7
60 20 73 30 69 51 218 66 307 31 35 -14 87 -22 178 -27 l127 -7 -5 128 c-12
260 -23 311 -124 571 l-21 52 64 0 64 0 -19 49 c-67 177 -126 451 -155 713
-21 191 -15 657 11 838 55 395 204 773 380 968 31 34 59 62 61 62 2 0 33 -57
68 -127z m2754 -556 c8 -6 24 -32 36 -57 16 -37 20 -66 20 -165 -1 -354 -177
-758 -371 -850 -40 -19 -55 -15 -85 26 -55 74 -41 274 42 586 80 302 209 497
314 478 16 -3 36 -11 44 -18z m-1075 -248 c33 -18 37 -28 37 -95 0 -70 -68
-469 -106 -617 -56 -221 -148 -351 -234 -332 -74 16 -106 113 -97 290 17 344
165 698 312 750 50 18 61 18 88 4z m400 -834 c-13 -25 -26 -45 -28 -45 -2 0 5
22 17 50 11 27 24 47 28 45 5 -3 -3 -25 -17 -50z m2058 -87 c13 -25 6 -120
-15 -189 -34 -112 -111 -216 -195 -263 l-34 -19 7 54 c21 160 91 353 151 412
34 33 70 35 86 5z m-623 -130 c16 -16 15 -110 -3 -185 -33 -141 -100 -243
-197 -303 l-50 -31 7 58 c25 205 123 433 199 463 29 12 30 12 44 -2z m203
-821 c-10 -9 -11 -8 -5 6 3 10 9 15 12 12 3 -3 0 -11 -7 -18z m-1695 -31 c42
-48 22 -56 -37 -13 -15 11 -38 17 -54 15 -27 -3 -29 -6 -51 -112 l-22 -110 61
-63 c33 -35 64 -63 70 -63 5 0 6 12 2 28 -5 22 -4 25 7 14 39 -39 -126 -310
-228 -373 -20 -12 -39 -18 -44 -13 -5 5 1 49 15 104 13 52 45 203 70 335 25
132 48 251 51 264 5 22 8 23 71 19 57 -4 69 -8 89 -32z m1947 -113 c-7 -2 -19
-2 -25 0 -7 3 -2 5 12 5 14 0 19 -2 13 -5z m-1558 -664 c44 -41 111 -96 148
-123 l68 -49 -31 -32 c-20 -21 -29 -38 -25 -46 5 -7 4 -10 -3 -5 -25 15 -20
-15 7 -42 l29 -29 -38 -71 c-22 -39 -62 -106 -90 -147 -30 -44 -49 -83 -46
-91 7 -17 2 -15 -62 29 -31 20 -41 32 -33 40 6 6 15 7 24 1 7 -5 0 2 -17 16
-17 14 -71 59 -121 100 -49 41 -132 117 -182 169 l-93 94 48 32 c64 44 164
145 158 161 -3 7 0 11 7 8 7 -2 31 24 56 62 l43 66 37 -34 c20 -19 72 -67 116
-109z m68 18 c4 3 7 1 7 -6 0 -7 4 -10 9 -7 5 3 14 -1 21 -9 7 -8 9 -15 5 -15
-4 0 -1 -8 6 -17 8 -10 -9 1 -37 24 -28 23 -57 50 -65 60 -7 10 0 6 17 -10 17
-15 33 -24 37 -20z m102 -90 c0 -7 8 -12 17 -12 10 0 18 -5 19 -10 0 -6 6 -17
12 -25 7 -8 -6 0 -29 17 -22 18 -41 39 -41 48 0 11 3 13 11 5 6 -6 11 -16 11
-23z m-635 -150 c0 -6 3 -7 7 -4 8 9 44 -23 38 -33 -5 -9 99 -113 160 -159 22
-17 47 -36 55 -43 8 -7 18 -13 22 -13 4 0 30 -18 58 -39 33 -25 48 -42 41 -49
-11 -11 -107 65 -277 220 -110 101 -153 150 -119 137 8 -4 15 -11 15 -17z
m-1253 -279 c-3 -8 -6 -5 -6 6 -1 11 2 17 5 13 3 -3 4 -12 1 -19z m-10 -50
c-3 -8 -6 -5 -6 6 -1 11 2 17 5 13 3 -3 4 -12 1 -19z m1839 -149 c3 -6 -5 -3
-20 6 -14 10 -26 19 -26 22 0 7 39 -17 46 -28z m2244 -239 c19 -11 31 -19 25
-19 -5 0 -26 8 -45 19 -19 11 -30 19 -25 19 6 0 26 -8 45 -19z m70 -30 c8 -5
11 -10 5 -10 -5 0 -17 5 -25 10 -8 5 -10 10 -5 10 6 0 17 -5 25 -10z"/>
<path d="M2415 8025 c-344 -93 -679 -393 -829 -742 -68 -159 -119 -360 -111
-433 1 -14 3 -31 4 -39 1 -16 15 -6 17 12 0 7 2 23 3 37 2 21 4 22 10 7 4 -13
16 19 33 97 29 126 97 298 135 342 12 15 23 33 23 41 0 7 5 13 10 13 6 0 10 6
10 13 0 6 15 26 33 42 17 17 55 62 84 100 140 189 409 388 599 444 84 25 245
44 259 30 12 -12 45 -12 45 1 0 5 -30 18 -66 30 -77 23 -183 26 -259 5z"/>
<path d="M2531 7558 c-65 -121 -186 -396 -178 -404 3 -3 10 11 17 30 6 20 16
36 21 36 5 0 9 7 9 15 0 9 6 18 14 21 7 3 26 35 42 72 15 37 40 90 54 118 15
27 25 60 23 72 -1 12 2 22 7 22 6 0 10 7 10 15 0 9 11 38 25 65 49 96 15 49
-44 -62z"/>
<path d="M3026 7590 c-74 -82 -160 -242 -220 -408 -32 -89 -78 -270 -73 -285
2 -7 12 23 22 66 10 43 22 80 27 83 4 3 8 0 8 -6 0 -6 5 -8 10 -5 6 4 8 11 5
16 -4 5 -1 17 5 26 10 15 11 16 6 1 -2 -9 1 -19 8 -21 10 -4 12 1 9 14 -3 11
1 21 10 25 9 3 14 14 12 25 -2 10 1 18 7 16 6 -1 13 4 16 12 3 8 0 11 -7 7 -6
-4 -11 -2 -11 3 0 6 4 11 8 11 4 0 41 66 82 146 74 143 140 240 155 226 6 -6
-32 77 -40 86 -1 1 -19 -16 -39 -38z"/>
<path d="M3150 7338 c-16 -76 -33 -219 -26 -225 3 -4 6 5 6 19 0 41 20 86 45
102 16 11 25 12 27 4 8 -24 30 4 23 31 -11 42 -47 121 -55 121 -5 0 -13 -24
-20 -52z"/>
<path d="M3122 7075 c0 -16 2 -22 5 -12 2 9 2 23 0 30 -3 6 -5 -1 -5 -18z"/>
<path d="M2790 6923 c-51 -156 -70 -265 -77 -428 -5 -128 -3 -166 16 -260 11
-60 30 -132 41 -160 12 -27 18 -39 15 -25 -41 180 -47 222 -47 362 0 168 21
332 63 493 15 60 26 111 24 113 -2 2 -18 -40 -35 -95z"/>
<path d="M3113 6910 c0 -30 2 -43 4 -27 2 15 2 39 0 55 -2 15 -4 2 -4 -28z"/>
<path d="M2721 6854 c0 -11 3 -14 6 -6 3 7 2 16 -1 19 -3 4 -6 -2 -5 -13z"/>
<path d="M2712 6805 c0 -16 2 -22 5 -12 2 9 2 23 0 30 -3 6 -5 -1 -5 -18z"/>
<path d="M2685 6618 c-42 -358 32 -664 215 -891 130 -162 348 -306 518 -342
61 -13 33 14 -36 35 -123 36 -323 177 -456 322 -80 86 -148 216 -197 378 -28
94 -32 122 -37 265 -3 99 0 201 8 268 7 59 10 110 8 113 -3 2 -13 -64 -23
-148z"/>
<path d="M3227 5509 c7 -7 15 -10 18 -7 3 3 -2 9 -12 12 -14 6 -15 5 -6 -5z"/>
<path d="M2739 5001 c20 -38 25 -41 61 -41 22 0 40 5 40 10 0 6 26 10 58 11
l57 1 -39 9 c-43 10 -63 22 -31 19 11 -1 94 -1 185 0 l165 3 -165 7 c-91 4
-207 11 -258 15 l-94 8 21 -42z"/>
<path d="M3268 5023 c6 -2 18 -2 25 0 6 3 1 5 -13 5 -14 0 -19 -2 -12 -5z"/>
<path d="M2275 4316 c-94 -43 -165 -153 -165 -254 0 -20 -3 -33 -6 -30 -12 13
-5 135 9 171 l16 37 -32 0 c-37 0 -170 -69 -249 -128 -132 -100 -209 -271
-210 -466 -1 -80 25 -246 38 -246 5 0 -4 60 -13 94 -3 10 -1 16 5 12 5 -3 8 7
6 24 -3 23 0 30 14 30 14 0 18 7 16 30 -1 19 4 34 14 40 10 5 12 10 5 10 -16
0 -17 30 -2 30 5 0 8 4 4 9 -3 6 4 26 15 45 11 20 15 36 10 36 -17 0 -11 27 7
34 14 6 15 9 4 15 -10 7 -9 11 6 22 10 8 26 26 35 40 9 14 32 42 52 62 20 20
34 37 31 37 -2 0 14 20 37 45 24 26 48 43 56 40 7 -2 11 -1 8 3 -7 11 24 37
52 44 19 5 22 1 28 -42 3 -27 18 -72 33 -102 22 -45 38 -60 98 -96 64 -39 79
-44 150 -49 96 -6 168 17 236 77 112 99 116 229 10 358 -73 90 -210 119 -318
68z m170 -102 c49 -23 67 -48 76 -106 11 -65 -1 -106 -43 -147 -41 -40 -86
-48 -144 -26 -57 21 -75 50 -80 122 -5 78 16 121 76 151 52 26 71 27 115 6z"/>
<path d="M2625 4292 c-2 -2 7 -20 22 -38 24 -33 28 -34 94 -34 37 0 71 5 74
11 4 6 14 8 23 4 9 -3 13 -3 9 1 -4 4 0 12 9 18 14 10 13 12 -3 13 -10 1 -36
6 -58 11 -44 11 -163 21 -170 14z"/>
<path d="M2685 3959 c-4 -6 -5 -12 -2 -15 2 -3 7 2 10 11 7 17 1 20 -8 4z"/>
<path d="M2664 3914 c-4 -11 -16 -29 -27 -41 -18 -21 -16 -50 4 -37 5 3 7 9 4
14 -3 4 1 7 8 6 6 0 12 4 12 9 0 6 -4 9 -8 7 -5 -1 -6 2 -2 8 3 6 10 8 15 5 4
-3 13 1 19 9 8 10 8 16 -4 26 -12 10 -16 9 -21 -6z"/>
<path d="M2568 3825 c-10 -10 -165 -45 -208 -46 -31 -1 -36 -3 -17 -6 20 -3
33 -14 44 -38 l16 -34 -42 -47 c-100 -114 -133 -249 -91 -373 46 -138 133
-213 279 -242 159 -31 331 54 412 203 33 60 34 67 34 168 0 96 -3 110 -28 158
-62 118 -146 177 -267 188 -70 7 -73 8 -86 41 -13 29 -32 42 -46 28z m167
-218 c60 -34 100 -112 100 -198 0 -56 -5 -73 -30 -114 -70 -113 -238 -142
-329 -57 -89 83 -86 244 6 339 46 47 55 50 148 51 51 1 74 -3 105 -21z"/>
<path d="M2656 3820 c5 -5 22 -12 39 -16 26 -6 28 -6 15 7 -8 8 -26 15 -39 16
-14 1 -20 -2 -15 -7z"/>
<path d="M1685 3540 c3 -5 8 -10 11 -10 2 0 4 5 4 10 0 6 -5 10 -11 10 -5 0
-7 -4 -4 -10z"/>
<path d="M1701 3320 c0 -14 28 -72 29 -59 0 4 -7 22 -15 40 -8 19 -14 27 -14
19z"/>
<path d="M1741 3230 c14 -31 19 -36 19 -24 0 6 -7 19 -16 30 -14 18 -14 18 -3
-6z"/>
<path d="M5789 6943 c-13 -16 -12 -17 4 -4 9 7 17 15 17 17 0 8 -8 3 -21 -13z"/>
<path d="M5524 3508 c-4 -7 -4 -10 1 -6 4 4 15 2 24 -5 14 -11 14 -10 2 6 -16
20 -18 21 -27 5z"/>
<path d="M4099 8413 c-13 -16 -12 -17 4 -4 9 7 17 15 17 17 0 8 -8 3 -21 -13z"/>
<path d="M4025 8358 c-64 -53 -215 -200 -215 -209 0 -4 17 9 38 30 20 21 46
41 56 45 10 3 17 9 14 12 -7 6 47 64 60 64 5 0 17 11 26 25 9 14 22 23 28 19
6 -4 8 -3 5 3 -4 5 5 16 18 23 14 7 25 17 25 22 0 12 -1 12 -55 -34z"/>
<path d="M5707 8345 c-9 -19 -15 -35 -12 -35 7 0 37 61 33 66 -3 2 -12 -12
-21 -31z"/>
<path d="M7094 8240 c0 -52 1 -74 3 -47 2 26 2 68 0 95 -2 26 -3 4 -3 -48z"/>
<path d="M8950 8289 l-55 -6 55 -2 c99 -3 237 -37 321 -80 43 -22 79 -39 79
-37 0 3 -26 20 -57 39 -62 37 -136 62 -220 73 -29 3 -51 10 -48 14 5 7 2 7
-75 -1z"/>
<path d="M7840 8183 c-31 -21 -142 -103 -155 -116 -19 -19 19 6 103 66 45 33
82 61 82 63 0 6 -2 5 -30 -13z"/>
<path d="M7780 8089 c-22 -18 -22 -19 -3 -10 12 6 25 16 28 21 9 15 3 12 -25
-11z"/>
<path d="M7635 8070 c-3 -6 1 -7 9 -4 18 7 21 14 7 14 -6 0 -13 -4 -16 -10z"/>
<path d="M7809 8053 c-13 -16 -12 -17 4 -4 16 13 21 21 13 21 -2 0 -10 -8 -17
-17z"/>
<path d="M7939 8049 l-24 -20 28 17 c15 9 27 18 27 20 0 8 -8 4 -31 -17z"/>
<path d="M7599 8033 c-13 -16 -12 -17 4 -4 9 7 17 15 17 17 0 8 -8 3 -21 -13z"/>
<path d="M7668 7999 l-53 -51 52 42 c50 40 70 60 59 60 -2 0 -29 -23 -58 -51z"/>
<path d="M7759 8013 c-13 -17 -13 -17 6 -3 11 8 22 16 24 17 2 2 0 3 -6 3 -6
0 -17 -8 -24 -17z"/>
<path d="M7943 8010 c-13 -5 -23 -15 -23 -21 0 -7 -3 -10 -6 -6 -9 8 -82 -43
-119 -84 l-30 -32 40 23 c33 20 84 59 160 122 11 10 6 9 -22 -2z"/>
<path d="M7533 7974 c-33 -32 -34 -34 -7 -16 17 12 37 28 44 37 23 28 2 16
-37 -21z"/>
<path d="M7859 7993 c-13 -16 -12 -17 4 -4 9 7 17 15 17 17 0 8 -8 3 -21 -13z"/>
<path d="M7739 7963 c-13 -16 -12 -17 4 -4 9 7 17 15 17 17 0 8 -8 3 -21 -13z"/>
<path d="M7741 7922 c-41 -32 -99 -88 -128 -125 -30 -37 -53 -67 -51 -67 2 0
61 56 131 125 71 69 127 125 125 125 -2 -1 -36 -27 -77 -58z"/>
<path d="M7645 7946 c-16 -13 -34 -24 -40 -25 -5 0 -10 -4 -11 -8 -3 -25 -18
-41 -32 -36 -14 4 -15 3 -2 -6 12 -9 12 -11 -2 -16 -13 -5 -35 -35 -25 -35 1
0 35 34 76 75 78 78 87 91 36 51z"/>
<path d="M9235 7945 c-71 -17 -91 -26 -93 -41 -10 -69 -8 -68 -58 -32 -44 31
-51 33 -133 33 -79 0 -91 -3 -151 -35 -138 -74 -262 -244 -325 -444 -62 -194
-79 -308 -79 -511 -1 -165 1 -185 22 -238 30 -74 63 -112 126 -145 68 -35 160
-36 226 -2 60 31 172 139 165 159 -2 9 4 29 14 44 l18 28 27 -41 c20 -31 36
-43 70 -52 l44 -12 -23 -30 c-92 -121 -86 -308 13 -462 22 -33 57 -75 78 -93
45 -37 65 -36 148 3 61 29 82 45 151 111 63 62 95 115 130 220 15 44 31 86 35
93 17 32 156 -196 214 -352 29 -77 56 -213 56 -285 0 -31 3 -41 9 -32 14 22
25 -109 17 -201 -13 -161 -78 -386 -145 -500 -49 -85 -152 -188 -226 -226 -33
-17 -56 -31 -52 -32 4 0 21 7 37 15 25 13 29 13 34 -1 3 -9 4 -19 2 -23 -10
-16 -15 -91 -5 -86 5 4 9 1 9 -4 0 -6 -4 -11 -9 -11 -5 0 -7 -9 -4 -21 3 -12
0 -24 -6 -28 -7 -4 -13 -17 -14 -28 -1 -14 -6 -19 -16 -15 -9 3 -12 1 -7 -7 4
-6 2 -18 -4 -26 -7 -8 -9 -15 -4 -15 5 0 -18 -28 -51 -62 -33 -35 -16 -20 38
32 278 269 425 537 482 879 25 150 16 424 -18 571 -43 183 -104 317 -199 444
-63 83 -137 144 -243 198 -82 42 -102 58 -84 69 12 7 -24 19 -59 19 -20 0 -22
2 -11 23 7 12 15 24 19 27 21 14 121 260 106 260 -5 0 -63 -97 -90 -148 -14
-29 -24 -57 -21 -63 4 -5 1 -8 -7 -7 -7 2 -12 -4 -12 -13 1 -9 -4 -16 -11 -16
-7 0 3 30 26 72 59 109 155 422 136 442 -4 3 -28 8 -55 11 l-48 4 -14 -73
c-42 -239 -135 -439 -204 -439 -29 0 -47 44 -43 102 l3 53 2 -56 c2 -62 28
-104 28 -46 0 42 12 133 29 232 23 131 25 138 30 190 4 48 4 49 -5 12 -11 -44
-40 -81 -40 -51 0 26 108 555 125 610 26 85 32 82 -100 49z m-206 -220 c26
-26 17 -145 -29 -414 -54 -320 -98 -470 -161 -549 -46 -59 -118 -70 -163 -26
-127 128 -23 729 161 934 26 29 61 59 78 66 36 17 92 11 114 -11z m178 -505
c-3 -23 -1 -38 4 -34 5 3 9 -5 9 -18 0 -22 0 -22 -13 -3 -13 19 -12 95 0 95 3
0 3 -18 0 -40z m-20 -112 c-3 -8 -6 -5 -6 6 -1 11 2 17 5 13 3 -3 4 -12 1 -19z
m20 0 c-3 -8 -6 -5 -6 6 -1 11 2 17 5 13 3 -3 4 -12 1 -19z m-30 -60 c-3 -7
-5 -2 -5 12 0 14 2 19 5 13 2 -7 2 -19 0 -25z m148 -258 c-10 -11 -15 -23 -12
-27 4 -3 16 2 27 12 11 10 20 14 20 9 0 -5 -13 -18 -30 -27 -16 -10 -30 -15
-30 -12 0 4 -7 -1 -16 -9 -8 -9 -21 -16 -27 -16 -6 0 9 20 33 45 44 45 69 63
35 25z"/>
<path d="M8930 7689 c-37 -15 -87 -67 -120 -125 -47 -81 -142 -380 -100 -314
5 8 12 32 15 52 4 23 11 36 17 31 6 -3 8 -1 5 5 -9 14 3 43 14 36 5 -3 6 1 3
9 -3 8 2 22 11 31 9 9 13 16 10 16 -7 0 42 66 81 110 12 14 39 44 59 68 21 23
44 42 51 42 8 0 14 7 14 15 0 8 6 15 13 16 13 0 -22 18 -38 18 -5 0 -21 -5
-35 -10z"/>
<path d="M8692 7200 c0 -14 2 -19 5 -12 2 6 2 18 0 25 -3 6 -5 1 -5 -13z"/>
<path d="M7626 7881 c-37 -38 -63 -71 -58 -75 11 -7 117 93 108 102 -3 3 1 14
11 24 9 10 14 18 12 18 -3 0 -35 -31 -73 -69z m44 26 c0 -1 -24 -25 -52 -52
l-53 -50 50 53 c46 48 55 57 55 49z"/>
<path d="M7689 7827 c-36 -34 -74 -74 -83 -89 -10 -15 -23 -25 -30 -22 -6 2
-23 -8 -36 -23 l-25 -28 26 23 c31 27 49 29 24 2 -10 -11 -14 -20 -10 -20 9 0
184 183 198 206 13 23 5 17 -64 -49z"/>
<path d="M7797 7867 c-75 -59 -110 -94 -163 -158 -31 -38 -55 -71 -53 -74 3
-2 60 54 128 126 67 71 121 129 119 129 -2 -1 -16 -11 -31 -23z"/>
<path d="M3458 7832 c25 -55 39 -69 18 -17 -10 22 -22 45 -27 50 -6 6 -2 -9 9
-33z"/>
<path d="M7484 7768 l-19 -23 23 19 c21 18 27 26 19 26 -2 0 -12 -10 -23 -22z"/>
<path d="M7650 7678 c-35 -39 -60 -69 -55 -67 16 7 139 139 129 139 -5 0 -38
-32 -74 -72z"/>
<path d="M8181 7464 c-17 -14 -31 -30 -31 -34 0 -9 32 -6 49 4 8 5 22 56 15
56 -1 0 -16 -12 -33 -26z m19 -8 c0 -2 -8 -10 -17 -17 -16 -13 -17 -12 -4 4
13 16 21 21 21 13z"/>
<path d="M9515 7180 c3 -5 8 -10 11 -10 2 0 4 5 4 10 0 6 -5 10 -11 10 -5 0
-7 -4 -4 -10z"/>
<path d="M9488 7107 c-3 -19 -2 -25 4 -19 6 6 8 18 6 28 -3 14 -5 12 -10 -9z"/>
<path d="M7336 6721 c-3 -5 -30 -12 -60 -15 -46 -6 -54 -10 -53 -27 1 -15 6
-19 22 -15 11 3 24 6 28 6 5 0 5 5 1 12 -5 7 -2 9 8 5 9 -3 30 5 49 19 18 13
28 24 22 24 -7 0 -14 -4 -17 -9z"/>
<path d="M7760 6365 l-35 -14 40 6 c22 3 47 9 55 14 25 14 -20 9 -60 -6z"/>
<path d="M8600 6311 c-64 -17 -65 -17 -68 -54 -2 -20 -7 -37 -13 -37 -5 0 -9
4 -9 10 0 5 -19 19 -42 31 -33 17 -53 20 -98 16 -246 -22 -421 -356 -437 -832
-6 -170 6 -252 45 -320 23 -38 42 -41 166 -20 114 19 126 26 186 119 l38 58
29 -41 c21 -30 40 -45 73 -55 25 -8 39 -15 33 -15 -7 -1 -13 -8 -13 -16 0 -13
10 -17 73 -30 9 -2 17 1 17 7 0 5 4 7 9 4 5 -3 20 3 34 14 14 11 30 20 35 20
13 0 33 25 36 44 1 9 15 30 32 47 28 31 17 32 -18 2 -9 -8 -22 -15 -30 -17 -7
-1 -31 -14 -53 -29 -22 -15 -44 -27 -50 -27 -5 0 4 8 20 19 53 32 122 116 158
192 40 82 93 254 99 315 3 39 3 39 -34 42 -36 3 -37 2 -48 -40 -54 -213 -97
-319 -146 -357 -35 -27 -50 -26 -70 4 -14 21 -16 41 -11 103 12 150 105 678
142 797 8 28 15 53 15 58 0 10 -26 7 -100 -12z m-162 -183 c19 -19 15 -41 -5
-30 -27 15 -99 -15 -132 -55 -35 -42 -99 -204 -108 -271 -8 -66 4 -48 49 70
35 94 86 186 98 179 3 -2 29 11 58 28 l52 30 0 -44 c0 -59 -54 -376 -86 -500
-61 -243 -167 -361 -228 -255 -17 28 -22 57 -24 141 -10 275 102 627 222 700
35 21 86 25 104 7z"/>
<path d="M9070 5913 c-134 -55 -148 -248 -24 -336 76 -54 176 -23 231 71 45
76 19 184 -58 241 -33 25 -116 38 -149 24z"/>
<path d="M10051 5685 c-1 -66 -3 -142 -5 -170 -2 -27 -2 -38 1 -22 2 15 7 25
11 23 7 -4 5 227 -2 269 -2 11 -4 -34 -5 -100z"/>
<path d="M8591 5614 c0 -11 3 -14 6 -6 3 7 2 16 -1 19 -3 4 -6 -2 -5 -13z"/>
<path d="M9364 5477 c-126 -105 -515 -395 -590 -439 -19 -11 -32 -24 -27 -28
4 -4 53 -36 108 -71 l100 -64 195 1 c208 1 257 9 369 59 l53 25 -5 57 c-11
121 -30 211 -64 303 -36 98 -81 190 -93 190 -3 0 -24 -15 -46 -33z"/>
<path d="M4540 5413 c-65 -35 -285 -187 -295 -203 -8 -13 214 -433 265 -500
l19 -25 96 103 c54 57 105 102 115 102 14 0 20 11 25 53 4 28 13 81 21 117 33
147 37 166 42 180 3 9 -2 7 -11 -5 -9 -11 -17 -28 -17 -37 0 -22 -30 -38 -66
-36 -16 1 -58 -6 -92 -17 -54 -15 -65 -16 -73 -4 -13 18 -3 112 22 218 10 46
18 85 16 87 -1 2 -32 -13 -67 -33z"/>
<path d="M10032 5430 c0 -14 2 -19 5 -12 2 6 2 18 0 25 -3 6 -5 1 -5 -13z"/>
<path d="M8557 5401 c-3 -12 -2 -23 3 -26 12 -7 22 27 12 37 -6 6 -12 1 -15
-11z"/>
<path d="M10022 5380 c0 -14 2 -19 5 -12 2 6 2 18 0 25 -3 6 -5 1 -5 -13z"/>
<path d="M9996 5285 c-3 -9 -6 -22 -5 -28 0 -7 5 -1 10 12 5 13 8 26 5 28 -2
2 -6 -3 -10 -12z"/>
<path d="M7138 5257 c-74 -29 -96 -51 -64 -63 25 -10 146 66 146 91 0 6 9 9
-82 -28z"/>
<path d="M8145 5075 c-221 -36 -408 -136 -568 -305 -90 -95 -131 -157 -184
-280 -57 -133 -76 -247 -70 -430 5 -167 23 -250 88 -405 50 -122 176 -304 224
-326 11 -5 45 -27 75 -49 30 -22 62 -40 70 -40 8 0 47 -15 85 -34 278 -135
581 -138 854 -10 159 75 247 148 336 278 254 376 269 823 39 1179 -124 192
-375 365 -596 412 -107 23 -248 27 -353 10z m124 -350 c23 -25 45 -45 48 -45
4 0 26 19 50 42 23 23 45 39 48 36 16 -16 35 -122 35 -195 l0 -83 50 38 c27
20 72 50 100 65 l50 28 16 -38 c9 -21 18 -76 21 -123 3 -47 6 -91 9 -98 2 -9
23 0 65 29 46 31 63 38 69 29 15 -24 21 -204 10 -279 -6 -41 -12 -76 -13 -78
-2 -1 -240 0 -530 4 l-526 6 -7 65 c-7 65 1 207 14 271 l7 34 30 -25 c17 -13
46 -34 66 -46 l36 -22 7 73 c4 39 12 100 18 135 11 61 13 63 37 57 34 -8 110
-57 141 -90 22 -24 25 -24 31 -8 4 10 8 45 8 79 1 51 22 150 38 177 10 16 33
5 72 -38z m616 -707 c14 -6 25 -19 25 -30 0 -17 -24 -18 -610 -18 -609 0 -610
0 -610 21 0 11 5 17 10 14 6 -3 13 1 16 9 5 14 68 16 575 16 410 0 575 -3 594
-12z m-563 -68 l601 0 -6 -103 c-11 -176 -92 -428 -148 -457 -37 -20 -193 -50
-326 -62 -154 -14 -341 -2 -481 32 -115 28 -134 39 -170 107 -62 116 -93 232
-99 371 -6 116 -5 125 11 119 10 -4 288 -7 618 -7z"/>
<path d="M7445 4920 c-3 -5 -1 -10 4 -10 6 0 11 5 11 10 0 6 -2 10 -4 10 -3 0
-8 -4 -11 -10z"/>
<path d="M7366 4565 c-9 -26 -7 -32 5 -12 6 10 9 21 6 23 -2 3 -7 -2 -11 -11z"/>
<path d="M5915 3260 c28 -12 37 -12 30 0 -3 6 -16 10 -28 9 -21 0 -21 -1 -2
-9z"/>
<path d="M7804 3221 c7 -11 46 -35 46 -28 0 3 -12 12 -26 22 -15 9 -23 12 -20
6z"/>
<path d="M8068 3103 c7 -3 16 -2 19 1 4 3 -2 6 -13 5 -11 0 -14 -3 -6 -6z"/>
<path d="M4030 2826 c0 -8 4 -17 9 -20 5 -4 7 3 4 14 -6 23 -13 26 -13 6z"/>
<path d="M3990 2781 c0 -6 4 -13 10 -16 6 -3 7 1 4 9 -7 18 -14 21 -14 7z"/>
</g>
</svg>
